<?xml version="1.0" standalone="no"?>
<!DOCTYPE svg PUBLIC "-//W3C//DTD SVG 20010904//EN"
 "http://www.w3.org/TR/2001/REC-SVG-20010904/DTD/svg10.dtd">
<svg version="1.0" xmlns="http://www.w3.org/2000/svg"
 width="512.000000pt" height="512.000000pt" viewBox="0 0 512.000000 512.000000"
 preserveAspectRatio="xMidYMid meet">

<g transform="translate(0.000000,512.000000) scale(0.100000,-0.100000)"
fill="#000000" stroke="none">
<path d="M2475 4913 c-815 -26 -1574 -493 -1977 -1218 -104 -186 -192 -421
-238 -632 -69 -320 -69 -686 0 -1006 143 -660 572 -1231 1177 -1566 247 -136
561 -236 852 -271 121 -14 421 -14 542 0 518 62 987 286 1363 650 397 385 641
876 706 1419 14 121 14 421 0 542 -90 753 -542 1425 -1205 1792 -366 202 -792
303 -1220 290z m415 -228 c758 -119 1390 -627 1674 -1345 99 -253 140 -477
140 -780 0 -237 -12 -337 -64 -543 -188 -740 -789 -1343 -1532 -1536 -973
-252 -1987 195 -2452 1082 -167 317 -241 623 -241 997 0 300 42 528 141 780
296 748 947 1250 1754 1356 134 17 437 11 580 -11z"/>
<path d="M2300 4011 c-326 -111 -649 -320 -930 -601 -384 -385 -608 -820 -598
-1165 l3 -100 54 90 c239 395 458 647 644 740 79 39 146 46 186 19 51 -36 51
-37 51 -700 l0 -616 -34 -34 c-33 -33 -37 -34 -110 -34 -74 0 -76 -1 -66 -20
6 -11 39 -50 73 -87 184 -197 486 -342 845 -403 203 -35 171 -50 372 170 95
104 177 187 181 184 5 -2 81 -68 171 -144 90 -77 165 -140 168 -140 3 0 55 37
115 82 211 159 468 433 616 658 54 82 129 220 129 238 0 5 -35 -24 -77 -65
-218 -208 -476 -310 -563 -223 -20 20 -20 36 -20 718 1 564 3 704 15 735 27
77 136 236 316 463 49 62 89 114 89 117 0 9 -137 -32 -248 -74 -235 -89 -459
-221 -601 -355 l-80 -75 -30 15 c-42 22 -147 46 -205 46 l-48 0 55 -60 c30
-32 68 -85 84 -117 l28 -58 3 -665 3 -665 -88 -52 c-197 -116 -340 -135 -434
-56 -61 52 -59 22 -59 842 l0 749 -34 -10 c-49 -15 -85 6 -116 67 -22 45 -25
62 -25 165 0 112 1 116 35 180 22 41 72 102 135 167 55 57 96 103 90 103 -5 0
-48 -13 -95 -29z"/>
</g>
</svg>
